<svg width="107" height="21" viewBox="0 0 107 21" fill="none" xmlns="http://www.w3.org/2000/svg">
<path d="M4.2 16.74C4.01333 16.74 3.78 16.6933 3.5 16.6C3.23333 16.52 2.99333 16.3667 2.78 16.14C2.58 15.9133 2.48 15.58 2.48 15.14C2.48 14.7533 2.56 14.2467 2.72 13.62C2.89333 12.9933 3.10667 12.2933 3.36 11.52C3.61333 10.7333 3.86667 9.91333 4.12 9.06C4.37333 8.19333 4.58 7.32667 4.74 6.46C4.91333 5.59333 5 4.76 5 3.96C5 3.46667 4.98 3.00667 4.94 2.58C4.91333 2.15333 4.81333 1.81333 4.64 1.56C4.48 1.29333 4.2 1.16 3.8 1.16C3.42667 1.16 3.10667 1.27333 2.84 1.5C2.58667 1.71333 2.37333 1.99333 2.2 2.34C2.04 2.68667 1.92 3.05333 1.84 3.44C1.77333 3.82667 1.74 4.18667 1.74 4.52C1.74 4.73333 1.75333 4.93333 1.78 5.12C1.82 5.29333 1.86667 5.45333 1.92 5.6C1.4 5.6 1.03333 5.46 0.82 5.18C0.606667 4.88667 0.5 4.54667 0.5 4.16C0.5 3.74667 0.593333 3.33333 0.78 2.92C0.98 2.50667 1.24667 2.12667 1.58 1.78C1.92667 1.42 2.32 1.13333 2.76 0.919999C3.2 0.706666 3.66667 0.599999 4.16 0.599999C4.98667 0.599999 5.6 0.926666 6 1.58C6.41333 2.22 6.62 3.08 6.62 4.16C6.62 4.93333 6.53333 5.74667 6.36 6.6C6.18667 7.44 5.97333 8.28 5.72 9.12C5.46667 9.96 5.20667 10.7667 4.94 11.54C4.68667 12.3133 4.47333 13.0267 4.3 13.68C4.12667 14.3333 4.04 14.8867 4.04 15.34C4.04 15.5667 4.07333 15.7533 4.14 15.9C4.22 16.0467 4.37333 16.12 4.6 16.12C4.97333 16.12 5.40667 15.9267 5.9 15.54C6.39333 15.1667 6.9 14.6533 7.42 14C7.95333 13.3333 8.46667 12.5867 8.96 11.76C9.46667 10.9333 9.92 10.0733 10.32 9.18C10.72 8.27333 11.04 7.38667 11.28 6.52C11.52 5.65333 11.64 4.85333 11.64 4.12C11.64 3.45333 11.54 2.96667 11.34 2.66C11.14 2.34 10.8733 2.13333 10.54 2.04C10.7267 1.72 10.92 1.48667 11.12 1.34C11.3333 1.19333 11.5267 1.12 11.7 1.12C11.98 1.12 12.2533 1.3 12.52 1.66C12.7867 2.02 12.92 2.58 12.92 3.34C12.92 4.07333 12.78 4.90667 12.5 5.84C12.2333 6.77333 11.8667 7.74667 11.4 8.76C10.9333 9.76 10.4 10.7333 9.8 11.68C9.2 12.6267 8.57333 13.48 7.92 14.24C7.26667 15 6.62 15.6067 5.98 16.06C5.34 16.5133 4.74667 16.74 4.2 16.74ZM13.5689 15.52C13.0489 15.52 12.6622 15.3533 12.4089 15.02C12.1556 14.7 12.0289 14.3067 12.0289 13.84C12.0289 13.5333 12.0822 13.1467 12.1889 12.68C12.3089 12.2133 12.4622 11.7267 12.6489 11.22C12.8356 10.7 13.0489 10.2133 13.2889 9.76C13.5422 9.30667 13.8089 8.94 14.0889 8.66C14.3689 8.36667 14.6422 8.22 14.9089 8.22C15.0289 8.22 15.1289 8.26 15.2089 8.34C15.3022 8.40667 15.3489 8.51333 15.3489 8.66C15.3489 8.82 15.2422 9.08 15.0289 9.44C14.8289 9.8 14.5889 10.2133 14.3089 10.68C14.0289 11.1467 13.7822 11.64 13.5689 12.16C13.3689 12.6667 13.2689 13.1533 13.2689 13.62C13.2689 14.1 13.3489 14.42 13.5089 14.58C13.6689 14.74 13.9156 14.82 14.2489 14.82C14.7022 14.82 15.1822 14.5933 15.6889 14.14C16.2089 13.6867 16.7556 12.8933 17.3289 11.76L17.5089 11.96C17.1222 13.1067 16.5622 13.9867 15.8289 14.6C15.1089 15.2133 14.3556 15.52 13.5689 15.52ZM15.9689 6.36C15.7556 6.36 15.5622 6.30667 15.3889 6.2C15.2289 6.09333 15.1489 5.92667 15.1489 5.7C15.1489 5.42 15.3089 5.18 15.6289 4.98C15.9622 4.76667 16.2889 4.66 16.6089 4.66C16.8089 4.66 16.9689 4.70667 17.0889 4.8C17.2089 4.89333 17.2689 5.05333 17.2689 5.28C17.2689 5.53333 17.1289 5.78 16.8489 6.02C16.5822 6.24667 16.2889 6.36 15.9689 6.36ZM22.8931 15.76C22.5198 15.76 22.1998 15.6333 21.9331 15.38C21.6665 15.1267 21.4531 14.8067 21.2931 14.42C21.1465 14.0333 21.0331 13.64 20.9531 13.24C20.8865 12.8267 20.8531 12.4667 20.8531 12.16C20.9998 12.16 21.2131 12.1267 21.4931 12.06C21.7731 11.98 22.0598 11.8667 22.3531 11.72C22.6465 11.56 22.8931 11.36 23.0931 11.12C23.3065 10.8667 23.4131 10.5733 23.4131 10.24C23.4131 9.96 23.3131 9.74 23.1131 9.58C22.9131 9.42 22.6798 9.34 22.4131 9.34C21.9998 9.34 21.6131 9.48667 21.2531 9.78C20.8931 10.06 20.5665 10.4333 20.2731 10.9C19.9931 11.3533 19.7398 11.84 19.5131 12.36C19.2865 12.88 19.0931 13.3733 18.9331 13.84C18.7731 14.3067 18.6398 14.6933 18.5331 15C18.4531 15.24 18.3398 15.4 18.1931 15.48C18.0465 15.5733 17.8931 15.62 17.7331 15.62C17.5065 15.62 17.3398 15.5267 17.2331 15.34C17.1398 15.1533 17.0798 14.92 17.0531 14.64C17.0398 14.3467 17.0331 14.0467 17.0331 13.74C17.0331 13.0467 17.1465 12.2467 17.3731 11.34C17.5998 10.4333 17.8998 9.49333 18.2731 8.52C18.6598 7.53333 19.0798 6.58 19.5331 5.66C19.9865 4.74 20.4398 3.90667 20.8931 3.16C21.3465 2.41333 21.7665 1.82 22.1531 1.38C22.5398 0.939999 22.8531 0.719999 23.0931 0.719999C23.2798 0.719999 23.4265 0.846666 23.5331 1.1C23.6531 1.35333 23.7131 1.66 23.7131 2.02C23.7131 2.47333 23.6131 2.98667 23.4131 3.56C23.2131 4.12 22.9265 4.68667 22.5531 5.26C22.1931 5.83333 21.7598 6.37333 21.2531 6.88C20.7598 7.38667 20.2198 7.82 19.6331 8.18C19.1931 9.26 18.8598 10.3133 18.6331 11.34C18.4198 12.3533 18.3131 13.2067 18.3131 13.9C18.5265 13.3667 18.7798 12.78 19.0731 12.14C19.3798 11.5 19.7265 10.8867 20.1131 10.3C20.4998 9.71333 20.9198 9.23333 21.3731 8.86C21.8265 8.48667 22.2998 8.3 22.7931 8.3C23.2865 8.3 23.7065 8.47333 24.0531 8.82C24.3998 9.16667 24.5731 9.58667 24.5731 10.08C24.5731 10.5067 24.4598 10.8733 24.2331 11.18C24.0198 11.4733 23.7531 11.7133 23.4331 11.9C23.1265 12.0733 22.8131 12.2067 22.4931 12.3C22.1865 12.38 21.9331 12.42 21.7331 12.42C21.7465 12.5267 21.7865 12.72 21.8531 13C21.9198 13.28 22.0131 13.5733 22.1331 13.88C22.2665 14.1867 22.4265 14.4533 22.6131 14.68C22.7998 14.8933 23.0265 15 23.2931 15C23.6798 15 24.0465 14.8533 24.3931 14.56C24.7398 14.2667 25.0665 13.88 25.3731 13.4C25.6931 12.9067 25.9865 12.3533 26.2531 11.74L26.4531 11.94C26.2665 12.5933 25.9798 13.2133 25.5931 13.8C25.2065 14.3733 24.7731 14.84 24.2931 15.2C23.8265 15.5733 23.3598 15.76 22.8931 15.76ZM19.9731 7.38C20.5865 6.88667 21.1198 6.32667 21.5731 5.7C22.0398 5.07333 22.3998 4.47333 22.6531 3.9C22.9065 3.31333 23.0331 2.85333 23.0331 2.52C23.0331 2.45333 23.0265 2.40667 23.0131 2.38C23.0131 2.35333 22.9998 2.34 22.9731 2.34C22.8398 2.34 22.6065 2.57333 22.2731 3.04C21.9531 3.50667 21.5865 4.12667 21.1731 4.9C20.7598 5.66 20.3598 6.48667 19.9731 7.38ZM27.5789 15.92C27.0056 15.92 26.5656 15.7533 26.2589 15.42C25.9522 15.0867 25.7989 14.5933 25.7989 13.94C25.7989 13.3533 25.9056 12.6333 26.1189 11.78C26.3456 10.9133 26.6256 10.0267 26.9589 9.12C26.8256 9.09333 26.6989 9.07333 26.5789 9.06C26.4589 9.03333 26.3456 9 26.2389 8.96V8.6C26.3456 8.61333 26.4722 8.62667 26.6189 8.64C26.7656 8.65333 26.9322 8.66667 27.1189 8.68C27.3989 7.96 27.6989 7.26667 28.0189 6.6C28.3389 5.92 28.6522 5.32 28.9589 4.8C29.2789 4.26667 29.5789 3.84667 29.8589 3.54C30.1522 3.22 30.3989 3.06 30.5989 3.06C30.7056 3.06 30.7989 3.1 30.8789 3.18C30.9722 3.24667 31.0189 3.35333 31.0189 3.5C31.0189 3.72667 30.8789 4.1 30.5989 4.62C30.3189 5.12667 29.9722 5.73333 29.5589 6.44C29.1456 7.14667 28.7456 7.91333 28.3589 8.74C28.4789 8.74 28.5989 8.74 28.7189 8.74C28.8522 8.74 28.9789 8.74 29.0989 8.74C29.5389 8.74 29.9989 8.73333 30.4789 8.72C30.9722 8.70667 31.4656 8.67333 31.9589 8.62V8.98C31.2256 9.06 30.5656 9.12 29.9789 9.16C29.4056 9.2 28.8922 9.22 28.4389 9.22C28.3856 9.22 28.3322 9.22 28.2789 9.22C28.2389 9.22 28.1922 9.22 28.1389 9.22C27.8322 9.92667 27.5722 10.6533 27.3589 11.4C27.1456 12.1467 27.0389 12.8733 27.0389 13.58C27.0389 14.1533 27.1256 14.5667 27.2989 14.82C27.4722 15.06 27.7589 15.18 28.1589 15.18C28.8522 15.18 29.5322 14.8733 30.1989 14.26C30.8656 13.6467 31.4522 12.8133 31.9589 11.76L32.2189 11.96C31.8989 12.7067 31.4922 13.38 30.9989 13.98C30.5189 14.58 29.9856 15.0533 29.3989 15.4C28.8122 15.7467 28.2056 15.92 27.5789 15.92ZM32.942 15.64C32.4354 15.64 32.042 15.4733 31.762 15.14C31.482 14.82 31.342 14.4067 31.342 13.9C31.342 13.4733 31.4287 13 31.602 12.48C31.7887 11.9467 32.042 11.42 32.362 10.9C32.682 10.3667 33.042 9.88 33.442 9.44C33.8554 9 34.2954 8.64667 34.762 8.38C35.2287 8.1 35.702 7.96 36.182 7.96C36.4354 7.96 36.6287 8 36.762 8.08C36.8954 8.16 36.9887 8.26 37.042 8.38C37.0687 8.36667 37.0887 8.36 37.102 8.36C37.1287 8.36 37.1554 8.36 37.182 8.36C37.4354 8.36 37.6087 8.46 37.702 8.66C37.8087 8.86 37.862 9.02 37.862 9.14C37.862 9.3 37.7954 9.51333 37.662 9.78C37.5287 10.0333 37.3954 10.32 37.262 10.64C37.142 10.96 37.082 11.3 37.082 11.66C37.082 12.0333 37.1754 12.3133 37.362 12.5C37.5487 12.6733 37.8487 12.76 38.262 12.76C38.5287 12.76 38.8087 12.6333 39.102 12.38C39.4087 12.1133 39.7087 11.78 40.002 11.38C40.2954 10.9667 40.5554 10.52 40.782 10.04C41.022 9.56 41.202 9.1 41.322 8.66C41.1887 8.52667 41.122 8.36667 41.122 8.18C41.122 7.91333 41.1754 7.68 41.282 7.48C41.3887 7.26667 41.5087 7.10667 41.642 7C41.7887 6.88 41.8954 6.82 41.962 6.82C42.1087 6.82 42.1887 6.88667 42.202 7.02C42.2287 7.14 42.242 7.23333 42.242 7.3C42.242 7.36667 42.202 7.5 42.122 7.7C42.0554 7.88667 42.022 8 42.022 8.04C42.022 8.22667 42.122 8.4 42.322 8.56C42.5354 8.70667 42.7754 8.88 43.042 9.08C43.3087 9.26667 43.542 9.5 43.742 9.78C43.9554 10.0467 44.062 10.3933 44.062 10.82C44.062 11.22 43.9754 11.6267 43.802 12.04C43.642 12.4533 43.4754 12.8467 43.302 13.22C43.142 13.5933 43.062 13.92 43.062 14.2C43.062 14.44 43.122 14.6 43.242 14.68C43.362 14.76 43.502 14.8 43.662 14.8C43.982 14.8 44.3087 14.7 44.642 14.5C44.9887 14.3 45.322 14.0467 45.642 13.74C45.962 13.4333 46.2487 13.1133 46.502 12.78C46.7554 12.4333 46.942 12.1133 47.062 11.82L47.322 12.02C47.0687 12.58 46.722 13.1333 46.282 13.68C45.842 14.2133 45.3487 14.6533 44.802 15C44.2687 15.3467 43.7154 15.52 43.142 15.52C42.6887 15.52 42.3287 15.4 42.062 15.16C41.8087 14.92 41.682 14.6067 41.682 14.22C41.682 13.82 41.7754 13.4 41.962 12.96C42.1487 12.52 42.3287 12.0867 42.502 11.66C42.6887 11.22 42.782 10.8267 42.782 10.48C42.782 10.0533 42.6554 9.74 42.402 9.54C42.162 9.32667 41.9154 9.13333 41.662 8.96C41.5154 9.41333 41.3154 9.89333 41.062 10.4C40.822 10.8933 40.5487 11.36 40.242 11.8C39.9354 12.2267 39.602 12.5733 39.242 12.84C38.8954 13.1067 38.5287 13.24 38.142 13.24C37.7687 13.24 37.4287 13.1667 37.122 13.02C36.8287 12.86 36.602 12.6267 36.442 12.32C36.0287 13.2933 35.5154 14.0933 34.902 14.72C34.302 15.3333 33.6487 15.64 32.942 15.64ZM33.382 14.78C33.6887 14.78 34.0154 14.6467 34.362 14.38C34.7087 14.1 35.0487 13.7267 35.382 13.26C35.7154 12.7933 36.002 12.2733 36.242 11.7C36.162 11.38 36.122 11 36.122 10.56C36.122 10.2533 36.1354 9.98667 36.162 9.76C36.202 9.53333 36.2487 9.33333 36.302 9.16C36.3687 8.98667 36.4354 8.84667 36.502 8.74C36.0487 8.74 35.622 8.86667 35.222 9.12C34.8354 9.36 34.482 9.68 34.162 10.08C33.842 10.4667 33.5687 10.8867 33.342 11.34C33.1154 11.7933 32.9354 12.2333 32.802 12.66C32.682 13.0867 32.622 13.4533 32.622 13.76C32.622 14.0667 32.6887 14.3133 32.822 14.5C32.9554 14.6867 33.142 14.78 33.382 14.78ZM54.8759 16.74C54.2626 16.6867 53.8826 16.52 53.7359 16.24C53.5893 15.96 53.5159 15.6 53.5159 15.16C53.5159 14.68 53.6159 14.0933 53.8159 13.4C54.0159 12.6933 54.2626 11.9267 54.5559 11.1C54.8626 10.2733 55.1693 9.44667 55.4759 8.62C55.3159 8.63333 55.1426 8.65333 54.9559 8.68C54.7826 8.69333 54.5626 8.72 54.2959 8.76C54.0293 8.78667 53.6826 8.83333 53.2559 8.9C53.2826 8.55333 53.4093 8.28667 53.6359 8.1C53.8759 7.9 54.1893 7.75333 54.5759 7.66C54.9626 7.56667 55.3959 7.51333 55.8759 7.5C56.2493 6.47333 56.6293 5.47333 57.0159 4.5C57.4159 3.51333 57.8093 2.61333 58.1959 1.8C58.0626 1.78667 57.9293 1.78 57.7959 1.78C57.6759 1.76667 57.5493 1.76 57.4159 1.76C56.5626 1.76 55.9026 1.84667 55.4359 2.02C54.9693 2.19333 54.6493 2.46 54.4759 2.82C54.3026 3.18 54.2159 3.64 54.2159 4.2C54.2159 4.49333 54.2359 4.76667 54.2759 5.02C54.3159 5.26 54.3826 5.51333 54.4759 5.78C54.0226 5.7 53.6893 5.52667 53.4759 5.26C53.2626 4.98 53.1559 4.63333 53.1559 4.22C53.1559 3.52667 53.4026 2.92 53.8959 2.4C54.3893 1.86667 55.0493 1.45333 55.8759 1.16C56.7159 0.853333 57.6426 0.699999 58.6559 0.699999C59.3626 0.699999 60.0426 0.753333 60.6959 0.86C61.3626 0.953333 62.0093 0.999999 62.6359 0.999999C62.9159 0.999999 63.1693 0.986666 63.3959 0.96C63.6359 0.919999 63.8759 0.866666 64.1159 0.799999C63.6226 1.36 63.2093 1.73333 62.8759 1.92C62.5426 2.10667 62.2026 2.2 61.8559 2.2C61.5493 2.2 61.1493 2.16 60.6559 2.08C60.1759 1.98667 59.6293 1.91333 59.0159 1.86C58.8426 2.3 58.6493 2.83333 58.4359 3.46C58.2226 4.07333 58.0026 4.73333 57.7759 5.44C57.5493 6.13333 57.3226 6.82667 57.0959 7.52C57.7626 7.56 58.3893 7.62 58.9759 7.7C59.5759 7.78 60.1159 7.82667 60.5959 7.84C60.4893 8 60.3626 8.12667 60.2159 8.22C60.0826 8.3 59.8893 8.36 59.6359 8.4C59.3826 8.44 59.0293 8.47333 58.5759 8.5C58.1359 8.51333 57.5426 8.52667 56.7959 8.54C56.7159 8.82 56.6159 9.15333 56.4959 9.54C56.3759 9.92667 56.2693 10.2933 56.1759 10.64C56.0826 10.9867 56.0093 11.24 55.9559 11.4C55.6626 12.4267 55.4093 13.3867 55.1959 14.28C54.9959 15.1733 54.8893 15.9933 54.8759 16.74ZM62.3384 15.52C61.8184 15.52 61.4318 15.3533 61.1784 15.02C60.9251 14.7 60.7984 14.3067 60.7984 13.84C60.7984 13.5333 60.8518 13.1467 60.9584 12.68C61.0784 12.2133 61.2318 11.7267 61.4184 11.22C61.6051 10.7 61.8184 10.2133 62.0584 9.76C62.3118 9.30667 62.5784 8.94 62.8584 8.66C63.1384 8.36667 63.4118 8.22 63.6784 8.22C63.7984 8.22 63.8984 8.26 63.9784 8.34C64.0718 8.40667 64.1184 8.51333 64.1184 8.66C64.1184 8.82 64.0118 9.08 63.7984 9.44C63.5984 9.8 63.3584 10.2133 63.0784 10.68C62.7984 11.1467 62.5518 11.64 62.3384 12.16C62.1384 12.6667 62.0384 13.1533 62.0384 13.62C62.0384 14.1 62.1184 14.42 62.2784 14.58C62.4384 14.74 62.6851 14.82 63.0184 14.82C63.4718 14.82 63.9518 14.5933 64.4584 14.14C64.9784 13.6867 65.5251 12.8933 66.0984 11.76L66.2784 11.96C65.8918 13.1067 65.3318 13.9867 64.5984 14.6C63.8784 15.2133 63.1251 15.52 62.3384 15.52ZM64.7384 6.36C64.5251 6.36 64.3318 6.30667 64.1584 6.2C63.9984 6.09333 63.9184 5.92667 63.9184 5.7C63.9184 5.42 64.0784 5.18 64.3984 4.98C64.7318 4.76667 65.0584 4.66 65.3784 4.66C65.5784 4.66 65.7384 4.70667 65.8584 4.8C65.9784 4.89333 66.0384 5.05333 66.0384 5.28C66.0384 5.53333 65.8984 5.78 65.6184 6.02C65.3518 6.24667 65.0584 6.36 64.7384 6.36ZM67.3827 15.6C66.8093 15.6 66.396 15.4 66.1427 15C65.9027 14.6133 65.7827 14.1267 65.7827 13.54C65.7827 12.9 65.9027 12.14 66.1427 11.26C66.3827 10.38 66.696 9.45333 67.0827 8.48C67.4827 7.50667 67.916 6.56 68.3827 5.64C68.8493 4.70667 69.316 3.86 69.7827 3.1C70.2493 2.34 70.676 1.73333 71.0627 1.28C71.4627 0.826666 71.776 0.599999 72.0027 0.599999C72.1493 0.599999 72.2693 0.686666 72.3627 0.86C72.456 1.02 72.5293 1.22 72.5827 1.46C72.636 1.68667 72.6627 1.89333 72.6627 2.08C72.6627 2.44 72.5693 2.91333 72.3827 3.5C72.2093 4.07333 71.956 4.72 71.6227 5.44C71.3027 6.14667 70.916 6.86667 70.4627 7.6C70.0227 8.32 69.536 9.01333 69.0027 9.68C68.4827 10.3467 67.9293 10.92 67.3427 11.4C67.2627 11.76 67.196 12.1133 67.1427 12.46C67.1027 12.7933 67.0827 13.1133 67.0827 13.42C67.0827 13.94 67.156 14.3267 67.3027 14.58C67.4493 14.8333 67.6693 14.96 67.9627 14.96C68.3227 14.96 68.676 14.8 69.0227 14.48C69.3827 14.16 69.716 13.76 70.0227 13.28C70.3427 12.7867 70.616 12.28 70.8427 11.76L71.1427 11.92C70.6093 13.0533 70.0293 13.9533 69.4027 14.62C68.776 15.2733 68.1027 15.6 67.3827 15.6ZM67.5227 10.72C67.9893 10.2533 68.4427 9.72 68.8827 9.12C69.3227 8.50667 69.7293 7.87333 70.1027 7.22C70.4893 6.56667 70.8293 5.93333 71.1227 5.32C71.416 4.70667 71.6427 4.16 71.8027 3.68C71.9627 3.18667 72.0427 2.80667 72.0427 2.54C72.0427 2.40667 72.0227 2.32 71.9827 2.28C71.956 2.24 71.9293 2.22 71.9027 2.22C71.796 2.22 71.6093 2.39333 71.3427 2.74C71.0893 3.07333 70.7893 3.52667 70.4427 4.1C70.096 4.67333 69.7427 5.32667 69.3827 6.06C69.0227 6.79333 68.676 7.56 68.3427 8.36C68.0227 9.16 67.7493 9.94667 67.5227 10.72ZM71.8892 15.52C71.3692 15.52 70.9826 15.3533 70.7292 15.02C70.4759 14.7 70.3492 14.3067 70.3492 13.84C70.3492 13.5333 70.4026 13.1467 70.5092 12.68C70.6292 12.2133 70.7826 11.7267 70.9692 11.22C71.1559 10.7 71.3692 10.2133 71.6092 9.76C71.8626 9.30667 72.1292 8.94 72.4092 8.66C72.6892 8.36667 72.9626 8.22 73.2292 8.22C73.3492 8.22 73.4492 8.26 73.5292 8.34C73.6226 8.40667 73.6692 8.51333 73.6692 8.66C73.6692 8.82 73.5626 9.08 73.3492 9.44C73.1492 9.8 72.9092 10.2133 72.6292 10.68C72.3492 11.1467 72.1026 11.64 71.8892 12.16C71.6892 12.6667 71.5892 13.1533 71.5892 13.62C71.5892 14.1 71.6692 14.42 71.8292 14.58C71.9892 14.74 72.2359 14.82 72.5692 14.82C73.0226 14.82 73.5026 14.5933 74.0092 14.14C74.5292 13.6867 75.0759 12.8933 75.6492 11.76L75.8292 11.96C75.4426 13.1067 74.8826 13.9867 74.1492 14.6C73.4292 15.2133 72.6759 15.52 71.8892 15.52ZM74.2892 6.36C74.0759 6.36 73.8826 6.30667 73.7092 6.2C73.5492 6.09333 73.4692 5.92667 73.4692 5.7C73.4692 5.42 73.6292 5.18 73.9492 4.98C74.2826 4.76667 74.6092 4.66 74.9292 4.66C75.1292 4.66 75.2892 4.70667 75.4092 4.8C75.5292 4.89333 75.5892 5.05333 75.5892 5.28C75.5892 5.53333 75.4492 5.78 75.1692 6.02C74.9026 6.24667 74.6092 6.36 74.2892 6.36ZM74.0134 20.6C73.9068 20.6 73.8068 20.54 73.7134 20.42C73.6068 20.3133 73.5268 20.1933 73.4734 20.06C73.4201 19.94 73.3934 19.8667 73.3934 19.84C73.5801 19.1867 73.7668 18.6 73.9534 18.08C74.1268 17.5733 74.3068 17.0467 74.4934 16.5C74.6668 15.9667 74.8401 15.34 75.0134 14.62C75.1868 13.8867 75.3668 12.98 75.5534 11.9C75.7401 10.82 75.9268 9.48 76.1134 7.88C76.1268 7.76 76.1534 7.67333 76.1934 7.62C76.2334 7.56667 76.3334 7.54 76.4934 7.54C76.8401 7.54 77.0868 7.64 77.2334 7.84C77.3801 8.02667 77.4534 8.23333 77.4534 8.46C77.4534 8.64667 77.4134 8.98 77.3334 9.46C77.2534 9.94 77.1401 10.5067 76.9934 11.16C77.2201 10.72 77.5001 10.2733 77.8334 9.82C78.1801 9.36667 78.5734 8.98667 79.0134 8.68C79.4534 8.37333 79.9334 8.22 80.4534 8.22C81.0401 8.22 81.5201 8.43333 81.8934 8.86C82.2801 9.27333 82.4734 9.82 82.4734 10.5C82.4734 11.02 82.3534 11.5733 82.1134 12.16C81.8868 12.7333 81.5601 13.28 81.1334 13.8C80.7201 14.3067 80.2268 14.72 79.6534 15.04C79.0801 15.36 78.4468 15.52 77.7534 15.52C77.4068 15.52 77.1268 15.48 76.9134 15.4C76.7001 15.32 76.5934 15.24 76.5934 15.16C76.5934 15.1067 76.6401 15.0733 76.7334 15.06C76.8401 15.06 76.9601 15.06 77.0934 15.06C77.6268 15.06 78.1334 14.9333 78.6134 14.68C79.1068 14.4133 79.5468 14.0667 79.9334 13.64C80.3201 13.2133 80.6201 12.74 80.8334 12.22C81.0601 11.7 81.1734 11.1867 81.1734 10.68C81.1734 10.2533 81.0801 9.89333 80.8934 9.6C80.7201 9.29333 80.4334 9.14 80.0334 9.14C79.6868 9.14 79.3401 9.25333 78.9934 9.48C78.6601 9.69333 78.3401 9.97333 78.0334 10.32C77.7401 10.6533 77.4734 11.0067 77.2334 11.38C77.0068 11.74 76.8334 12.0667 76.7134 12.36C76.4734 13.36 76.2334 14.32 75.9934 15.24C75.7534 16.1733 75.5201 17.0133 75.2934 17.76C75.0801 18.52 74.8868 19.14 74.7134 19.62C74.5268 20.1 74.3734 20.3933 74.2534 20.5C74.1868 20.5667 74.1068 20.6 74.0134 20.6ZM81.8259 20.6C81.7193 20.6 81.6193 20.54 81.5259 20.42C81.4193 20.3133 81.3393 20.1933 81.2859 20.06C81.2326 19.94 81.2059 19.8667 81.2059 19.84C81.3926 19.1867 81.5793 18.6 81.7659 18.08C81.9393 17.5733 82.1193 17.0467 82.3059 16.5C82.4793 15.9667 82.6526 15.34 82.8259 14.62C82.9993 13.8867 83.1793 12.98 83.3659 11.9C83.5526 10.82 83.7393 9.48 83.9259 7.88C83.9393 7.76 83.9659 7.67333 84.0059 7.62C84.0459 7.56667 84.1459 7.54 84.3059 7.54C84.6526 7.54 84.8993 7.64 85.0459 7.84C85.1926 8.02667 85.2659 8.23333 85.2659 8.46C85.2659 8.64667 85.2259 8.98 85.1459 9.46C85.0659 9.94 84.9526 10.5067 84.8059 11.16C85.0326 10.72 85.3126 10.2733 85.6459 9.82C85.9926 9.36667 86.3859 8.98667 86.8259 8.68C87.2659 8.37333 87.7459 8.22 88.2659 8.22C88.8526 8.22 89.3326 8.43333 89.7059 8.86C90.0926 9.27333 90.2859 9.82 90.2859 10.5C90.2859 11.02 90.1659 11.5733 89.9259 12.16C89.6993 12.7333 89.3726 13.28 88.9459 13.8C88.5326 14.3067 88.0393 14.72 87.4659 15.04C86.8926 15.36 86.2593 15.52 85.5659 15.52C85.2193 15.52 84.9393 15.48 84.7259 15.4C84.5126 15.32 84.4059 15.24 84.4059 15.16C84.4059 15.1067 84.4526 15.0733 84.5459 15.06C84.6526 15.06 84.7726 15.06 84.9059 15.06C85.4393 15.06 85.9459 14.9333 86.4259 14.68C86.9193 14.4133 87.3593 14.0667 87.7459 13.64C88.1326 13.2133 88.4326 12.74 88.6459 12.22C88.8726 11.7 88.9859 11.1867 88.9859 10.68C88.9859 10.2533 88.8926 9.89333 88.7059 9.6C88.5326 9.29333 88.2459 9.14 87.8459 9.14C87.4993 9.14 87.1526 9.25333 86.8059 9.48C86.4726 9.69333 86.1526 9.97333 85.8459 10.32C85.5526 10.6533 85.2859 11.0067 85.0459 11.38C84.8193 11.74 84.6459 12.0667 84.5259 12.36C84.2859 13.36 84.0459 14.32 83.8059 15.24C83.5659 16.1733 83.3326 17.0133 83.1059 17.76C82.8926 18.52 82.6993 19.14 82.5259 19.62C82.3393 20.1 82.1859 20.3933 82.0659 20.5C81.9993 20.5667 81.9193 20.6 81.8259 20.6ZM92.2784 15.64C91.7051 15.64 91.2984 15.46 91.0584 15.1C90.8184 14.7533 90.6984 14.3267 90.6984 13.82C90.6984 13.4067 90.7651 12.98 90.8984 12.54C91.0318 12.1 91.2051 11.6867 91.4184 11.3C91.6451 10.9133 91.8918 10.6 92.1584 10.36C92.4384 10.12 92.7184 10 92.9984 10C93.0651 10 93.1318 10.0133 93.1984 10.04C93.2784 10.0533 93.3518 10.0733 93.4184 10.1C93.2984 10.2067 93.1518 10.4067 92.9784 10.7C92.8184 10.98 92.6651 11.3067 92.5184 11.68C92.3718 12.04 92.2451 12.4 92.1384 12.76C92.0451 13.12 91.9984 13.4267 91.9984 13.68C91.9984 14.08 92.0651 14.3733 92.1984 14.56C92.3318 14.7333 92.5051 14.82 92.7184 14.82C92.9984 14.82 93.3318 14.6733 93.7184 14.38C94.1051 14.0733 94.4851 13.6867 94.8584 13.22C94.4851 12.9133 94.1918 12.5133 93.9784 12.02C93.7784 11.5133 93.6784 11 93.6784 10.48C93.6784 10.04 93.7518 9.62667 93.8984 9.24C94.0584 8.85333 94.2851 8.54667 94.5784 8.32C94.8718 8.08 95.2251 7.96 95.6384 7.96C96.1851 7.96 96.5518 8.10667 96.7384 8.4C96.9251 8.69333 97.0184 9.06 97.0184 9.5C97.0184 10.02 96.8918 10.6 96.6384 11.24C96.3851 11.8667 96.0651 12.4733 95.6784 13.06C95.9184 13.1933 96.1718 13.26 96.4384 13.26C96.6518 13.26 96.8918 13.22 97.1584 13.14C97.4251 13.0467 97.6851 12.8933 97.9384 12.68C98.2051 12.4667 98.4184 12.18 98.5784 11.82L98.8184 12.02C98.5518 12.6467 98.1718 13.0933 97.6784 13.36C97.1984 13.6133 96.7384 13.74 96.2984 13.74C96.1251 13.74 95.9584 13.7267 95.7984 13.7C95.6384 13.66 95.4851 13.6067 95.3384 13.54C94.8851 14.14 94.3851 14.64 93.8384 15.04C93.3051 15.44 92.7851 15.64 92.2784 15.64ZM95.2184 12.7C95.5518 12.2067 95.8251 11.6933 96.0384 11.16C96.2651 10.6133 96.3784 10.1 96.3784 9.62C96.3784 9.23333 96.3184 8.95333 96.1984 8.78C96.0918 8.59333 95.9518 8.5 95.7784 8.5C95.5118 8.5 95.2384 8.69333 94.9584 9.08C94.6784 9.46667 94.5384 9.95333 94.5384 10.54C94.5384 10.9267 94.5918 11.32 94.6984 11.72C94.8184 12.1067 94.9918 12.4333 95.2184 12.7ZM99.5031 15.78C99.0898 15.78 98.8031 15.5733 98.6431 15.16C98.4831 14.76 98.4031 14.2333 98.4031 13.58C98.4031 13.5533 98.4098 13.3467 98.4231 12.96C98.4365 12.56 98.4698 11.8933 98.5231 10.96C98.5498 10.6 98.5898 10.3533 98.6431 10.22C98.6965 10.0867 98.8698 10.02 99.1631 10.02C99.3898 10.02 99.5298 10.0667 99.5831 10.16C99.6498 10.24 99.6831 10.4067 99.6831 10.66C99.6831 11.1 99.6498 11.62 99.5831 12.22C99.5298 12.8067 99.5031 13.36 99.5031 13.88C99.5031 14.2667 99.5365 14.5533 99.6031 14.74C99.6698 14.9133 99.7898 15 99.9631 15C100.203 15 100.47 14.8667 100.763 14.6C101.056 14.32 101.356 13.96 101.663 13.52C101.97 13.0667 102.256 12.5867 102.523 12.08C102.803 11.5733 103.05 11.0867 103.263 10.62C103.29 9.71333 103.383 9.11333 103.543 8.82C103.716 8.51333 103.93 8.36 104.183 8.36C104.436 8.36 104.616 8.45333 104.723 8.64C104.843 8.81333 104.903 8.97333 104.903 9.12C104.903 9.29333 104.843 9.47333 104.723 9.66C104.616 9.84667 104.503 10.1 104.383 10.42C104.263 10.74 104.203 11.2 104.203 11.8C104.203 12.0133 104.223 12.24 104.263 12.48C104.303 12.72 104.39 12.92 104.523 13.08C104.656 13.24 104.863 13.32 105.143 13.32C105.423 13.32 105.69 13.2133 105.943 13C106.21 12.7733 106.47 12.3867 106.723 11.84L106.983 12.04C106.69 12.7067 106.363 13.1533 106.003 13.38C105.656 13.6067 105.323 13.72 105.003 13.72C104.563 13.72 104.196 13.56 103.903 13.24C103.61 12.92 103.416 12.4333 103.323 11.78C103.003 12.4333 102.623 13.0667 102.183 13.68C101.756 14.28 101.31 14.78 100.843 15.18C100.376 15.58 99.9298 15.78 99.5031 15.78Z" fill="black"/>
</svg>
